<svg xmlns="http://www.w3.org/2000/svg" width="76.471" height="55.25"><g data-name="グループ 3642" fill="#fff"><path data-name="パス 9914" d="M0 55.15V42.973h1.744v5.215h2.155v-5.215h1.744V55.15H3.899v-5.423H1.744v5.423zm11.662-4.26l-.855-4.412h-.034L9.92 50.89zm-4.309 4.26l2.719-12.177h1.453l2.719 12.177H12.5l-.513-2.616H9.61l-.513 2.616zm8.653 0V42.973h1.744V55.15zm6.036-10.536v3.8h.992a1.755 1.755 0 00.735-.128 1 1 0 00.428-.368 1.671 1.671 0 00.188-.59 5.673 5.673 0 00.051-.812 5.673 5.673 0 00-.051-.812 1.625 1.625 0 00-.205-.607 1.388 1.388 0 00-1.231-.479zM20.298 55.15V42.973h2.8q3.078 0 3.078 3.574a4.5 4.5 0 01-.333 1.83 2.586 2.586 0 01-1.168 1.213l1.881 5.56h-1.847l-1.624-5.2h-1.043v5.2zM34.22 44.614v3.8h.992a1.755 1.755 0 00.735-.128 1 1 0 00.428-.368 1.671 1.671 0 00.188-.59 5.673 5.673 0 00.051-.812 5.673 5.673 0 00-.051-.812 1.625 1.625 0 00-.205-.607 1.388 1.388 0 00-1.238-.483zM32.473 55.15V42.973h2.8q3.078 0 3.078 3.574a4.5 4.5 0 01-.333 1.83 2.586 2.586 0 01-1.168 1.213l1.881 5.56h-1.846l-1.625-5.2h-1.04v5.2zm8.14 0V42.973h5.2v1.642h-3.456v3.574h3.01v1.641h-3.01v3.574h3.454v1.746zm12.825-8.67h-1.745v-.393a1.862 1.862 0 00-.282-1.037 1.044 1.044 0 00-.949-.436 1.1 1.1 0 00-.581.137 1.147 1.147 0 00-.361.342 1.446 1.446 0 00-.188.5 3.294 3.294 0 00-.051.59 5.781 5.781 0 00.026.6 1.136 1.136 0 00.128.427.951.951 0 00.3.325 2.749 2.749 0 00.539.274l1.334.53a3.307 3.307 0 01.941.522 2.255 2.255 0 01.564.693 3.237 3.237 0 01.257.932 9.222 9.222 0 01.068 1.188 6.267 6.267 0 01-.154 1.428 3.008 3.008 0 01-.5 1.12 2.462 2.462 0 01-.94.752 3.317 3.317 0 01-1.419.274 3.1 3.1 0 01-1.18-.222 2.806 2.806 0 01-.94-.616 3 3 0 01-.624-.915 2.778 2.778 0 01-.231-1.137v-.65h1.744v.547a1.425 1.425 0 00.282.864 1.1 1.1 0 00.949.385 1.53 1.53 0 00.693-.128.921.921 0 00.385-.368 1.35 1.35 0 00.162-.573q.026-.333.026-.744a7.371 7.371 0 00-.034-.787 1.354 1.354 0 00-.137-.493.961.961 0 00-.316-.308 4.053 4.053 0 00-.52-.253l-1.248-.516a2.765 2.765 0 01-1.516-1.223 4.206 4.206 0 01-.385-1.907 4.423 4.423 0 01.188-1.3 2.956 2.956 0 01.564-1.06 2.586 2.586 0 01.915-.71 3.053 3.053 0 011.328-.264 2.894 2.894 0 011.188.239 3.061 3.061 0 01.932.633 2.642 2.642 0 01.787 1.881zm2.051-.63a3.111 3.111 0 01.257-1.3 2.746 2.746 0 01.684-.94 2.892 2.892 0 01.932-.547 3.08 3.08 0 011.052-.188 3.08 3.08 0 011.052.188 3.1 3.1 0 01.949.547 2.863 2.863 0 01.667.94 3.111 3.111 0 01.257 1.3v6.43a3.082 3.082 0 01-.257 1.317 2.716 2.716 0 01-.667.906 2.932 2.932 0 01-.949.564 3.034 3.034 0 01-2.1 0 2.744 2.744 0 01-.932-.564 2.611 2.611 0 01-.684-.906 3.082 3.082 0 01-.257-1.317zm1.744 6.43a1.159 1.159 0 00.351.932 1.3 1.3 0 001.659 0 1.159 1.159 0 00.351-.932v-6.43a1.159 1.159 0 00-.351-.932 1.236 1.236 0 00-.829-.3 1.236 1.236 0 00-.829.3 1.159 1.159 0 00-.351.932zm8.242-7.661v3.8h.992a1.755 1.755 0 00.735-.128 1 1 0 00.427-.368 1.671 1.671 0 00.188-.59 5.673 5.673 0 00.051-.812 5.673 5.673 0 00-.048-.821 1.626 1.626 0 00-.205-.607 1.388 1.388 0 00-1.231-.479zM63.732 55.15V42.973h2.8q3.078 0 3.078 3.574a4.5 4.5 0 01-.333 1.83 2.586 2.586 0 01-1.168 1.213l1.881 5.56h-1.847l-1.623-5.2h-1.044v5.2zm8.977 0V44.614h-2.018v-1.641h5.78v1.642h-2.018V55.15z"/><path data-name="パス 9913" d="M24.23 29.497l2.266-6.754h11.628l2.266 6.754h3.89L34.02 0H30.6L20.34 29.5zm8.08-23.94l4.655 13.851H27.65zm17.955 23.94h3.42V8.122h-3.42zM50.051 3.85h3.847V0h-3.847z"/></g></svg>