<?xml version="1.0" encoding="utf-8"?>
<!-- Generator: Adobe Illustrator 27.4.0, SVG Export Plug-In . SVG Version: 6.00 Build 0)  -->
<svg version="1.1" id="レイヤー_1" xmlns="http://www.w3.org/2000/svg" xmlns:xlink="http://www.w3.org/1999/xlink" x="0px"
	 y="0px" viewBox="0 0 595.3 134" style="enable-background:new 0 0 595.3 134;" xml:space="preserve">
<style type="text/css">
	.st0{fill:#20A139;}
	.st1{enable-background:new    ;}
</style>
<rect x="98.9" y="33.7" class="st0" width="57.9" height="66.6"/>
<g class="st1">
	<path d="M212.2,63.5h5.7c2.5,0,4.1-0.1,5.7-0.3v6.9c-1.7-0.2-3.4-0.3-5.7-0.3h-3.7c1.4,2.2,3,4,5,5.7c1.8,1.5,3.2,2.5,5.9,4
		c-1.7,2.6-2.3,3.9-3.7,7.1c-4.2-2.9-7.2-6.2-9.5-10.5c0.1,1.4,0.1,2.9,0.1,4v3.2c0,2.2,0.1,4.2,0.3,5.7h-7.7
		c0.2-1.6,0.3-3.6,0.3-5.7v-2.8c0-1.2,0-2.6,0.1-4.3c-2.9,4.5-5.8,7.4-10.1,10.1c-1.4-2.7-2.3-4.2-3.9-6.1v2.9
		c0,2.4,0.1,4.2,0.3,5.8h-7.7c0.2-1.6,0.3-3.6,0.3-5.8v-6.1c0-1,0-2.8,0.1-4.3c-1.1,3.2-2.3,5.4-3.8,7.3c-0.6-2.9-1.2-5-2.4-7.7
		c2.4-2.9,4.5-7.5,5.5-12h-1.1c-1.5,0-2.2,0-3.1,0.2V54c0.8,0.2,1.7,0.2,3.1,0.2h1.6v-2.9c0-2.1-0.1-3.5-0.3-4.7h7.7
		c-0.2,1.2-0.3,2.7-0.3,4.7v2.9h0.9c1,0,1.4,0,2.2-0.2v3.2c1.6-3.2,2.5-6.7,2.7-9.5l6.8,1.6c-0.2,0.6-0.3,1.1-0.7,2.7
		c-0.1,0.3-0.1,0.4-0.3,1.1h2.4v-1.9c0-1.9-0.1-3.2-0.3-4.6h7.8c-0.2,1.3-0.3,2.6-0.3,4.6v1.9h4.4c2.6,0,4.1-0.1,5.7-0.3v6.9
		c-1.8-0.2-3.3-0.3-5.7-0.3h-4.4V63.5z M191,80.3c2.5-1.3,4.2-2.5,6.4-4.3c2-1.8,3.4-3.3,5.1-6h-1.6c-2.3,0-4.4,0.1-5.7,0.3v-2.5
		c-0.8,1.8-1.6,3.9-2.1,5.4c-1-1.4-1.5-2.2-2.1-3.8c0,1.2,0.1,2.9,0.1,4.6V80.3z M195.2,63.2c1,0.2,1.3,0.2,2.5,0.3
		c-1.2-1.1-2.2-1.9-3.6-2.8v0c-0.7-0.1-1.3-0.2-2.1-0.2h-0.9c1,2.4,2.3,4.3,4,6V63.2z M200.4,59.5c-0.7,1.6-1,2.3-2,4
		c1,0,1.5,0,2.5,0h4v-4H200.4z"/>
	<path d="M234.7,70.3c-1.8,0-3.8,0.1-5.4,0.2v-6.5c1.2,0.1,3.3,0.2,5.6,0.2h11c2.2,0,4.3-0.1,5.5-0.2v6.5c-1.5-0.1-3.6-0.2-5.4-0.2
		h-1.9v8.4c3.1-0.5,4.9-0.9,9.1-1.8v6.4c-9.1,1.9-13.8,2.8-21.1,3.8c-1.6,0.2-2.4,0.3-3.4,0.5l-1.1-7.1c1.9,0,4.7-0.2,9.1-0.8v-9.4
		H234.7z M267.3,53.5c2.4,0,3.6,0,4.7-0.2v6.9c-1.5-0.2-3.7-0.3-6.3-0.3h-5.6c0.4,6.5,1.1,10.4,2.4,13.9c1,2.9,1.9,4.7,3.4,6.4
		c0.6-1.4,1-3.3,1.4-6.6c1.9,1.4,3.7,2.4,6,3.3c-0.7,4.6-1.5,7.2-2.8,9.3c-1.1,1.6-2.5,2.5-4.1,2.5c-2.8,0-6-2.6-8.5-7
		c-2.9-5.1-4.6-12.1-5.3-21.9h-18.6c-2.3,0-4.2,0.1-6.3,0.3v-6.9c1.7,0.2,3.7,0.3,6.3,0.3h18.3c-0.2-5.1-0.2-5.1-0.4-6.4h8
		c-0.1,0.9-0.2,1.7-0.2,2.7c0,0.4,0,1.4,0,3.7h4.5c-1.7-2-2-2.4-3.7-3.9l5.6-2.6c2.5,2.4,2.5,2.4,4.4,4.7l-3.8,1.8H267.3z"/>
	<path d="M285.7,62.9c-2.4,1.3-4,2-6.8,3.1c-1.2-2.9-2-4.3-3.7-6.6c4.5-1.3,7.3-2.5,11.2-5c3.8-2.5,6.1-4.5,8.2-7.3h7.9
		c2.3,2.8,4.5,4.7,8.2,7c3.9,2.4,7.4,3.8,11.6,5c-1.7,2.6-2.5,4.4-3.4,7.1c-2.8-1-4.4-1.8-7.3-3.3v2.6c-1.5-0.1-2.6-0.2-4.6-0.2
		h-16.8c-1.6,0-3.2,0-4.6,0.2V62.9z M283.5,74.1c-2.5,0-4.2,0.1-5.9,0.3v-6.9c1.7,0.1,3.7,0.2,5.9,0.2h30.6c2.3,0,4.1-0.1,5.9-0.2
		v6.9c-1.8-0.2-3.4-0.3-5.9-0.3h-4.8c4.9,4.9,6.4,6.7,10.3,11.7l-6.7,3.8c-1.1-1.6-1.1-1.6-2.3-3.3c-5.7,0.6-5.7,0.6-8.3,0.8
		c-3.2,0.3-16.4,1.4-18.4,1.4c-1.7,0.1-3.1,0.3-4.3,0.5l-0.9-7.6c1.3,0.1,2.1,0.1,3.2,0.1c0.5,0,0.5,0,3.4-0.1
		c1.6-2.4,3-4.8,4.2-7.4H283.5z M305.5,59.1c-2.9-2-4.6-3.6-6.8-6c-2.1,2.4-3.6,3.7-6.9,6H305.5z M298,74.1
		c-1.2,2.4-2.8,5.1-4.2,7.1c7.1-0.3,7.1-0.3,12.2-0.7c-1.4-1.5-2-2.3-4.1-4.3l5.7-2.1H298z"/>
	<path d="M338.7,84.4c0,2.3,0,3.4,0.2,4.8h-7.8c0.2-1.4,0.3-2.6,0.3-5V75c-1.4,1.1-2.2,1.6-4.3,2.8c-0.9-2.8-1.8-4.7-3.1-6.8
		c3-1.4,5.2-2.9,7.6-5.2c2.4-2.2,3.7-3.7,5.1-6.3h-6.9c-1.9,0-3.1,0-4.2,0.2v-6.7c1.1,0.1,1.9,0.2,3.8,0.2h2.2V50
		c0-1.2-0.1-2.3-0.3-3.4h7.7c-0.2,1-0.2,2-0.2,3.5v3.3h1.3c1.5,0,2.2,0,2.8-0.1l3.2,3.1c-0.5,0.9-0.7,1.2-1.1,2.1
		c-1.4,3-2.5,4.8-4.4,7.4c2.1,2.3,4.4,3.8,7.8,5.4c-1.7,2.4-2.7,4.2-3.7,6.5c-2.6-1.5-3.9-2.6-5.9-4.7V84.4z M360.2,81.2h3.9
		c2.6,0,4.1,0,5.9-0.2v7.1c-2-0.2-4-0.3-5.9-0.3h-15.8c-1.9,0-3.8,0.1-5.7,0.3V81c1.9,0.2,3.4,0.2,5.8,0.2h4V64.7H350
		c-1.7,0-3.2,0.1-4.8,0.2v-7c1.3,0.2,2.7,0.2,4.8,0.2h2.5V52c0-2.2-0.1-3.4-0.3-5.3h8.3c-0.2,1.8-0.3,3-0.3,5.3v6.1h3.8
		c2.3,0,3.4,0,4.8-0.2v7c-1.6-0.1-3.1-0.2-4.8-0.2h-3.8V81.2z"/>
	<path d="M398.2,86.5c-3.4,0-5.4,0-7.2,0.1c0.3-1.6,0.4-3.6,0.4-6.6V56.1c0-3.2-0.1-5.1-0.4-7.3h10.6c-0.3,2.4-0.4,3.6-0.4,7.1v22.4
		H413c4.1,0,5.8,0,8.1-0.3v8.7c-1.8-0.2-4.2-0.3-8.1-0.3H398.2z"/>
	<path d="M435.2,48.8c-0.3,1.9-0.4,3.4-0.4,6.7v24.2c0,3.1,0.1,4.8,0.4,6.7h-10.7c0.3-1.8,0.4-3.7,0.4-6.7V55.5
		c0-3.4-0.1-4.7-0.4-6.7H435.2z"/>
	<path d="M464.5,67.3c1.4,1.9,2.3,3.4,3.5,5.4c-0.2-2.1-0.3-4.2-0.3-6.7V55.7c0-3-0.1-4.8-0.4-6.9h10.4c-0.3,2-0.4,3.9-0.4,6.9v24
		c0,2.8,0.1,4.8,0.4,6.7H467c-0.9-1.7-2-3.4-3.7-5.7l-9-12.6c-1.3-1.8-2.1-3.2-3.5-5.6c0.2,2,0.3,4.5,0.3,6.7v10.1
		c0,3.1,0.1,5.1,0.4,7.1h-10.4c0.3-1.8,0.4-3.8,0.4-7.1V55.6c0-2.6-0.1-4.7-0.4-6.7h10.6c0.5,1.2,1.6,3,3.5,5.7L464.5,67.3z"/>
	<path d="M517.1,79.8c2.9,4,3.5,4.8,5.2,6.7h-12.7c-0.7-1.4-2.1-3.8-3.4-5.7l-7.6-11.2l-4.9,4.6v5.7c0,2.8,0.1,4.3,0.4,6.7h-10.3
		c0.3-2.3,0.4-4,0.4-6.7V55.5c0-2.8-0.1-4.5-0.4-6.7h10.3c-0.3,2.4-0.4,3.8-0.4,6.7v8l9.7-9.6c1.9-1.9,3.2-3.4,4.2-5.1h13.2
		c-0.9,0.8-1.2,1.2-1.9,1.8c-2.5,2.4-2.5,2.4-3.4,3.2l-10.2,9.9L517.1,79.8z"/>
</g>
</svg>
